<svg width="689.91" height="234.68" version="1.1" viewBox="0 0 68.998 23.47" xmlns="http://www.w3.org/2000/svg">
 <title>XElement Logo</title>
 <g transform="translate(-142.04 32.082)">
  <path id="left_cheviron" d="m158.93-11.277-16.391-8.2335v-1.1245l16.391-9.1864v2.8589l-12.236 6.785v0.07624l12.236 5.9845z"/>
  <path id="XE" d="m176.44-31.403v0l-5.093 9.1005c-0.40759 0.71023-0.93164 0.64197-1.3002 0l-5.1565-8.9814h-3.0187l5.6669 10.031c0.3371 0.59658 0.32235 1.2313 0 1.8044l-5.7133 10.156 3.1123-0.04194 5.0628-9.191c0.35148-0.63835 0.85358-1.1745 1.4858 0l4.9538 9.203v0.00811h5e-3l0.0116 0.022128h3.2051c3.8343-0.044809 7.8556-0.022128 11.756-0.022128l6e-3 -1.9592-12.292-0.01068v-7.9673h11.824v-2.454h-11.693v-7.9639h11.889v-1.7336zm0 5.6887v10.554l-2.5848-4.7083c-0.34409-0.62654-0.17298-0.86213 0-1.1748z" stroke="#000" stroke-linecap="round" stroke-linejoin="round" stroke-width=".35907"/>
  <path id="right_cheviron" d="m194.15-10.832 16.391-8.2335v-1.1245l-16.391-9.1864v2.8589l12.236 6.785v0.07624l-12.236 5.9845z"/>
 </g>
</svg>
